<svg width="1600" height="1260" viewBox="0 0 1600 1260" fill="none" xmlns="http://www.w3.org/2000/svg">
  <rect width="1600" height="1260" fill="#ECE7DB"/>
  <rect x="0" y="0" width="1600" height="1260" fill="url(#dots)"/>
  <text x="82" y="118" fill="#121212" font-family="Anton, Arial, sans-serif" font-size="92" letter-spacing="8">DH4NSHOO LOGO SUGGESTIONS</text>
  <text x="84" y="174" fill="#555555" font-family="Space Grotesk, Arial, sans-serif" font-size="28" letter-spacing="4">The 4 should feel intentional. These are the strongest Gen Z directions for it.</text>

  <rect x="80" y="228" width="1440" height="280" rx="22" fill="#F7F3EA" stroke="#D6CFBF" stroke-width="2"/>
  <rect x="188" y="320" width="612" height="88" transform="rotate(-3 188 320)" fill="#C7FF3D"/>
  <text x="166" y="420" fill="#121212" font-family="Anton, Arial, sans-serif" font-size="144" letter-spacing="14">DH4NSHOO</text>
  <rect x="472" y="292" width="68" height="68" rx="6" fill="#121212"/>
  <text x="488" y="345" fill="#C7FF3D" font-family="Anton, Arial, sans-serif" font-size="56">4</text>
  <text x="110" y="280" fill="#555555" font-family="Space Grotesk, Arial, sans-serif" font-size="24" letter-spacing="5">01 / HYPE TAG</text>
  <text x="110" y="457" fill="#555555" font-family="Space Grotesk, Arial, sans-serif" font-size="24" letter-spacing="5">Best if you want loud streetwear with easy merch potential</text>

  <rect x="80" y="544" width="1440" height="280" rx="22" fill="#121212"/>
  <rect x="174" y="670" width="796" height="22" transform="skewX(-22)" fill="#C7FF3D"/>
  <text x="166" y="678" fill="#F7F3EA" font-family="Anton, Arial, sans-serif" font-size="146" letter-spacing="17">DH4NSHOO</text>
  <path d="M566 590H632L604 646H662L562 760L592 678H534L566 590Z" fill="#C7FF3D"/>
  <text x="110" y="596" fill="#A0A0A0" font-family="Space Grotesk, Arial, sans-serif" font-size="24" letter-spacing="5">02 / RACER SLASH</text>
  <text x="110" y="773" fill="#A0A0A0" font-family="Space Grotesk, Arial, sans-serif" font-size="24" letter-spacing="5">Best if you want speed, edge, and a more aggressive youth brand look</text>

  <rect x="80" y="860" width="1440" height="320" rx="22" fill="#F7F3EA" stroke="#D6CFBF" stroke-width="2"/>
  <rect x="382" y="928" width="652" height="214" rx="22" fill="#121212"/>
  <rect x="404" y="950" width="608" height="170" rx="14" fill="#F7F3EA" stroke="#121212" stroke-width="3"/>
  <text x="446" y="1065" fill="#121212" font-family="Anton, Arial, sans-serif" font-size="118" letter-spacing="13">DH4N</text>
  <rect x="854" y="980" width="102" height="102" rx="12" fill="#C7FF3D" stroke="#121212" stroke-width="3"/>
  <text x="880" y="1056" fill="#121212" font-family="Anton, Arial, sans-serif" font-size="78">4</text>
  <text x="968" y="1065" fill="#121212" font-family="Anton, Arial, sans-serif" font-size="118" letter-spacing="13">SHOO</text>
  <text x="110" y="912" fill="#555555" font-family="Space Grotesk, Arial, sans-serif" font-size="24" letter-spacing="5">03 / CODE BADGE</text>
  <text x="110" y="1112" fill="#555555" font-family="Space Grotesk, Arial, sans-serif" font-size="24" letter-spacing="5">Best if you want a more internet-native, meme-ready identity</text>

  <defs>
    <pattern id="dots" width="18" height="18" patternUnits="userSpaceOnUse">
      <circle cx="2" cy="2" r="1.2" fill="#D4CEBF"/>
    </pattern>
  </defs>
</svg>
